<svg xmlns="http://www.w3.org/2000/svg" viewBox="0 0 64 64" width="64" height="64">
  <!-- Shadow -->
  <ellipse cx="30" cy="62" rx="12" ry="3" fill="rgba(0,0,0,0.15)"/>
  <!-- Head -->
  <circle cx="34" cy="8" r="6" fill="#F5CBA7"/>
  <!-- Hair -->
  <path d="M28 7 Q28 2 34 2 Q40 2 40 7" fill="#2C3E50" stroke="#2C3E50" stroke-width="0.5"/>
  <!-- Neck -->
  <rect x="32" y="13" width="4" height="3" rx="1" fill="#F5CBA7"/>
  <!-- Body / Jacket (two-tone: cream + brown) -->
  <path d="M26 16 Q24 18 24 26 L26 26 L26 20 L28 20 L28 34 L32 34 L32 20 L34 20 L34 34 L38 34 L38 20 L40 20 L40 26 L42 26 Q42 18 40 16 Q37 13 34 13 L32 14 Q29 13 26 16Z" fill="#ECE0D8"/>
  <!-- Brown collar/shoulders overlay -->
  <path d="M26 16 Q29 14 34 14 Q37 14 40 16 Q38 19 34 19 L32 19 Q28 19 26 16Z" fill="#8D6E63"/>
  <!-- Belt -->
  <rect x="28" y="34" width="12" height="3" rx="1" fill="#7B3F00"/>
  <!-- Trousers (blue jeans) -->
  <path d="M28 37 L26 56 L30 56 L32 44 L34 56 L38 56 L36 37Z" fill="#7EA7C4"/>
  <!-- Left arm hanging -->
  <path d="M26 16 L22 30 L24 31 L27 20" fill="#ECE0D8" stroke="#d5c4b8" stroke-width="0.5"/>
  <!-- Right arm slightly forward -->
  <path d="M40 16 L44 28 L42 29 L39 20" fill="#8D6E63" stroke="#7a5d50" stroke-width="0.5"/>
  <!-- Left hand -->
  <circle cx="23" cy="31" r="2" fill="#F5CBA7"/>
  <!-- Right hand -->
  <circle cx="43" cy="29" r="2" fill="#F5CBA7"/>
  <!-- Left shoe -->
  <path d="M26 56 L22 60 L30 60 L30 56Z" fill="#2C3E50"/>
  <!-- Right shoe -->
  <path d="M34 56 L34 60 L42 60 L38 56Z" fill="#2C3E50"/>
  <!-- Walking motion: left leg forward -->
  <path d="M28 37 L24 52 L28 52 L30 42" fill="#5D89B0"/>
</svg>
